<svg width="100" height="100" viewBox="0 0 100 100" fill="none" xmlns="http://www.w3.org/2000/svg">
<path d="M48.0866 0.792564C49.3117 0.285094 50.6883 0.285094 51.9134 0.792563L83.4419 13.8521C84.6671 14.3596 85.6404 15.3329 86.1479 16.5581L99.2074 48.0866C99.7149 49.3117 99.7149 50.6883 99.2074 51.9134L86.1479 83.4419C85.6404 84.6671 84.6671 85.6404 83.4419 86.1479L51.9134 99.2074C50.6883 99.7149 49.3117 99.7149 48.0866 99.2074L16.5581 86.1479C15.3329 85.6404 14.3596 84.6671 13.8521 83.4419L0.792564 51.9134C0.285094 50.6883 0.285094 49.3117 0.792563 48.0866L13.8521 16.5581C14.3596 15.3329 15.3329 14.3596 16.5581 13.8521L48.0866 0.792564Z" fill="#343434"/>
<path d="M48.4693 8.71644C49.4494 8.31047 50.5506 8.31047 51.5307 8.71644L78.1095 19.7257C79.0896 20.1317 79.8683 20.9104 80.2743 21.8905L91.2836 48.4693C91.6895 49.4494 91.6895 50.5506 91.2836 51.5307L80.2743 78.1095C79.8683 79.0896 79.0896 79.8683 78.1095 80.2743L51.5307 91.2836C50.5506 91.6895 49.4494 91.6895 48.4693 91.2836L21.8905 80.2743C20.9104 79.8683 20.1317 79.0896 19.7257 78.1095L8.71644 51.5307C8.31047 50.5506 8.31047 49.4494 8.71644 48.4693L19.7257 21.8905C20.1317 20.9104 20.9104 20.1317 21.8905 19.7257L48.4693 8.71644Z" fill="#343434" stroke="white" stroke-width="2"/>
<path d="M69 28H31L22 43L50 77L78 43L69 28Z" fill="#9FDAFA"/>
<path d="M34 43L31 28L22 43H34Z" fill="#9BDDFF"/>
<path d="M34 43L50 28L66 43H34Z" fill="#75B5F5"/>
<path d="M34 43L50 28H31L34 43Z" fill="#448BE8"/>
<path d="M65.9995 43L68.9996 28L78 43H65.9995Z" fill="#78B5F6"/>
<path d="M66.0018 43L50.0012 28H69.002L66.0018 43Z" fill="#9FDAFA"/>
<path d="M50 77L22 43H34L50 77Z" fill="#78B5F6"/>
<path d="M50 77L78 43H66L50 77Z" fill="#448BE8"/>
<path d="M50 77L34 43H66L50 77Z" fill="#9FDAFA"/>
</svg>
