<svg width="100" height="100" viewBox="0 0 100 100" fill="none" xmlns="http://www.w3.org/2000/svg">
<path d="M48.0866 0.792564C49.3117 0.285094 50.6883 0.285094 51.9134 0.792563L83.4419 13.8521C84.6671 14.3596 85.6404 15.3329 86.1479 16.5581L99.2074 48.0866C99.7149 49.3117 99.7149 50.6883 99.2074 51.9134L86.1479 83.4419C85.6404 84.6671 84.6671 85.6404 83.4419 86.1479L51.9134 99.2074C50.6883 99.7149 49.3117 99.7149 48.0866 99.2074L16.5581 86.1479C15.3329 85.6404 14.3596 84.6671 13.8521 83.4419L0.792564 51.9134C0.285094 50.6883 0.285094 49.3117 0.792563 48.0866L13.8521 16.5581C14.3596 15.3329 15.3329 14.3596 16.5581 13.8521L48.0866 0.792564Z" fill="#343434"/>
<path d="M48.4693 8.71644C49.4494 8.31047 50.5506 8.31047 51.5307 8.71644L78.1095 19.7257C79.0896 20.1317 79.8683 20.9104 80.2743 21.8905L91.2836 48.4693C91.6895 49.4494 91.6895 50.5506 91.2836 51.5307L80.2743 78.1095C79.8683 79.0896 79.0896 79.8683 78.1095 80.2743L51.5307 91.2836C50.5506 91.6895 49.4494 91.6895 48.4693 91.2836L21.8905 80.2743C20.9104 79.8683 20.1317 79.0896 19.7257 78.1095L8.71644 51.5307C8.31047 50.5506 8.31047 49.4494 8.71644 48.4693L19.7257 21.8905C20.1317 20.9104 20.9104 20.1317 21.8905 19.7257L48.4693 8.71644Z" fill="#343434" stroke="white" stroke-width="2"/>
<path d="M50.0006 23.0005L59 40.0005L78 43.0005L64 56.0005L68 76.0005L50 68.0005L32 76.0005L36 56.0005L22 43.0005L41 40.0005L50.0006 23.0005Z" fill="#FB9E37"/>
<path fill-rule="evenodd" clip-rule="evenodd" d="M50 23.0005V49.0005L41 40.0005L22 43.0005L50 49.0005L36 56.0005L32 76.0005L50 49.0005L59 40.0005L50 23.0005ZM78.0019 43.0005L50.0018 49.0006L64.0014 56.0005L78.0019 43.0005ZM50.0002 49.0005L68.0002 76.0006L50.0004 68.0003L50.0002 49.0005Z" fill="#FDB641"/>
</svg>
