<svg width="585" height="33" viewBox="0 0 585 33" fill="none" xmlns="http://www.w3.org/2000/svg">
<path d="M27.6196 1.26916C28.1407 0.362564 29.1829 0.725202 29.1829 1.63179V31.5494C29.1829 32.6373 27.6196 32.8186 27.6196 31.5494V4.35157L15.46 24.4779C15.1126 25.2032 14.2441 25.2032 13.7229 24.4779L1.56337 4.53289V31.7307C1.56337 32.9999 0 32.8186 0 31.7307V1.63179C0 0.725202 1.04225 0.362564 1.56337 1.26916L14.7652 22.6648L27.6196 1.26916Z" fill="white"/>
<path d="M46.9012 23.5714L42.7322 32.2747C42.211 33.1813 40.8214 32.456 41.3425 31.5495L56.4551 0.543956C56.4551 0.181319 56.8025 0 57.1499 0C57.4973 0 57.6711 0.181319 57.8448 0.362637L72.9574 31.3681C73.4785 32.2747 72.0888 33.1813 71.5677 32.0934L67.225 23.5714H46.9012ZM57.1499 2.35714L47.596 21.9396H66.5302L57.1499 2.35714Z" fill="white"/>
<path d="M103.703 0.906616C104.919 0.906616 104.919 2.35717 103.703 2.35717H91.3701V31.7308C91.3701 32.4561 90.849 32.6374 90.5016 32.6374C90.1542 32.6374 89.6331 32.2747 89.6331 31.7308V2.35717H77.4735C76.2575 2.35717 76.2575 0.906616 77.4735 0.906616C86.3326 0.906616 95.018 0.906616 103.703 0.906616Z" fill="white"/>
<path d="M127.154 19.5824L114.474 1.81319C113.605 0.9066 114.821 -0.181312 115.69 0.9066L128.023 18.3132L140.356 0.9066C141.225 6.91414e-06 142.441 0.9066 141.572 1.81319L128.891 19.5824V31.7308C128.891 32.456 128.544 32.6374 128.023 32.6374C127.675 32.6374 127.154 32.2747 127.154 31.7308V19.5824Z" fill="white"/>
<path d="M153.037 23.5714L148.868 32.2747C148.347 33.1813 146.957 32.456 147.478 31.5495L162.591 0.543956C162.765 0.181319 162.938 0 163.286 0C163.633 0 163.807 0.181319 163.981 0.362637L179.093 31.3681C179.614 32.2747 178.225 33.1813 177.703 32.0934L173.534 23.5714H153.037ZM163.286 2.35714L153.732 21.9396H172.666L163.286 2.35714Z" fill="white"/>
<path d="M248.924 30.8242H272.201C272.722 30.8242 273.069 31.1868 273.069 31.5495C273.069 32.0934 272.722 32.4561 272.201 32.4561C263.863 32.4561 255.525 32.4561 247.361 32.4561C246.492 32.4561 246.145 31.7308 246.666 31.0055L270.637 2.53848H248.055C247.708 2.53848 247.361 2.17585 247.361 1.63189C247.361 1.26925 247.708 0.906616 248.055 0.906616C256.046 0.906616 264.037 0.906616 272.027 0.906616C272.896 0.906616 273.243 1.63189 272.722 2.35717L248.924 30.8242Z" fill="white"/>
<path d="M288.355 23.5714L284.186 32.2747C283.665 33.1813 282.275 32.456 282.797 31.5494L297.909 0.543912C298.083 0.181274 298.257 0.181274 298.604 0.181274C298.951 0.181274 299.125 0.362593 299.299 0.543912L314.412 31.5494C314.933 32.456 313.543 33.3626 313.022 32.2747L308.853 23.5714H288.355ZM298.604 2.3571L289.05 21.9395H307.984L298.604 2.3571Z" fill="white"/>
<path d="M340.642 32.4561C336.299 32.4561 331.956 32.4561 327.614 32.4561C327.093 32.4561 326.745 32.0934 326.745 31.5495C326.745 21.5769 326.745 11.7857 326.745 1.81321C326.745 1.26925 327.093 0.906616 327.614 0.906616H339.078C343.074 0.906616 350.543 2.35717 350.543 9.06596C350.543 12.1484 348.806 14.5055 345.853 15.5934C349.848 16.5 352.801 18.8572 352.801 23.5714C352.628 30.4616 346.374 32.4561 340.642 32.4561ZM328.309 2.35717V15.0495H339.6C344.463 15.0495 348.632 13.5989 348.632 9.06596C348.632 3.6264 342.205 2.53848 338.905 2.35717H328.309ZM328.309 16.6813V30.8242C332.304 30.8242 336.473 30.8242 340.642 30.8242C345.679 30.8242 351.064 29.3736 351.064 23.3901C351.064 18.4945 347.069 16.6813 342.205 16.6813H339.773H328.309Z" fill="white"/>
<path d="M365.482 16.1374C365.655 8.52201 370.345 1.6319 377.641 0.362674C379.378 0.181355 381.115 0.181355 382.852 0.362674C390.322 1.6319 395.533 8.34069 395.707 16.1374C396.054 25.7473 388.932 33 380.594 33C372.43 33 365.308 25.7473 365.482 16.1374ZM367.219 16.1374C367.045 24.6594 373.299 31.3682 380.768 31.3682C388.237 31.3682 394.491 24.6594 394.317 16.1374C394.144 9.24729 389.627 3.08245 382.852 1.99454C381.289 1.81322 379.726 1.81322 378.162 1.99454C371.388 3.08245 367.392 9.24729 367.219 16.1374Z" fill="white"/>
<path d="M411.341 20.6703V31.5494C411.341 32.6373 409.777 32.6373 409.777 31.5494V1.63181C409.777 1.08786 410.125 0.72522 410.646 0.72522H422.632C430.622 0.72522 434.791 5.43951 434.791 11.0604C434.791 16.4999 431.317 20.1263 424.369 20.6703L434.27 31.1868C434.965 32.0934 434.096 33.1813 433.228 32.2747L422.632 20.489H411.341V20.6703ZM411.341 19.401H422.632C429.927 19.401 433.228 15.7747 433.054 11.2417C433.054 6.3461 429.059 2.53841 422.632 2.53841H411.341V19.401Z" fill="white"/>
<path d="M487.599 30.8242H510.876C511.397 30.8242 511.744 31.1868 511.744 31.5495C511.744 32.0934 511.397 32.4561 510.876 32.4561C502.538 32.4561 494.2 32.4561 486.035 32.4561C485.167 32.4561 484.819 31.7308 485.341 31.0055L509.312 2.53848H486.73C486.383 2.53848 486.035 2.17585 486.035 1.63189C486.035 1.26925 486.383 0.906616 486.73 0.906616C494.721 0.906616 502.711 0.906616 510.702 0.906616C511.571 0.906616 511.918 1.63189 511.397 2.35717L487.599 30.8242Z" fill="white"/>
<path d="M545.964 0.725267C546.833 -7.86781e-06 547.875 1.0879 547.18 1.81318L533.11 15.0494L548.049 31.3681C548.917 32.0934 547.701 33.1813 546.833 32.456L531.894 16.1374L525.64 21.9396V31.9121C525.64 32.2747 525.293 32.6374 524.772 32.6374C524.424 32.6374 523.903 32.2747 523.903 31.9121V1.45054C523.903 1.0879 524.251 0.543948 524.772 0.543948C525.293 0.543948 525.64 0.906585 525.64 1.45054V19.945L545.964 0.725267Z" fill="white"/>
<path d="M570.457 19.6211L557.603 1.85189C556.734 0.945297 557.95 -0.142615 558.818 0.945297L571.152 18.3519L583.485 0.945297C584.354 0.0387032 585.569 0.945297 584.701 1.85189L572.02 19.6211V31.7695C572.02 32.4947 571.673 32.6761 571.152 32.6761C570.804 32.6761 570.283 32.3134 570.283 31.7695V19.6211H570.457Z" fill="white"/>
<path d="M190.731 9.2472C190.731 8.70324 190.905 7.97797 191.079 7.61533C192.295 3.80764 197.332 2.35709 200.633 2.17577C200.98 2.17577 201.328 2.17577 201.849 2.17577C205.497 2.17577 210.708 2.71973 212.792 6.3461L214.008 5.43951C211.576 1.63181 205.844 0.72522 201.849 0.72522C200.459 0.72522 199.069 0.906538 197.853 1.08786C193.858 1.81313 189.168 4.17027 189.168 9.2472C189.168 14.6868 193.337 16.3186 198.374 16.8626L200.112 15.5934C195.074 15.0494 190.731 13.9615 190.731 9.2472Z" fill="white"/>
<path d="M205.148 15.9561L203.411 17.2253C209.144 17.7692 214.355 18.3132 214.355 23.5714C214.355 29.7363 207.059 31.3681 202.369 31.3681C201.674 31.3681 200.806 31.3681 200.111 31.1868C196.984 30.8242 192.468 29.7363 190.557 26.6539L189.341 27.5604C191.773 31.7308 198.026 32.8187 202.195 32.8187C207.928 32.8187 215.744 30.8242 215.744 23.5714C215.744 17.7692 210.707 16.5 205.148 15.9561Z" fill="white"/>
<path d="M449.902 9.2472C449.902 8.70324 450.076 7.97797 450.25 7.61533C451.466 3.80764 456.503 2.35709 459.804 2.17577C460.151 2.17577 460.499 2.17577 461.02 2.17577C464.668 2.17577 469.879 2.71973 471.963 6.3461L473.179 5.43951C470.747 1.63181 465.015 0.72522 461.02 0.72522C459.63 0.72522 458.24 0.906538 457.024 1.08786C453.029 1.99445 448.513 4.35159 448.513 9.2472C448.513 14.6868 452.682 16.3186 457.719 16.8626L459.456 15.5934C454.071 15.0494 449.902 13.9615 449.902 9.2472Z" fill="white"/>
<path d="M464.147 15.9561L462.41 17.2253C468.143 17.7692 473.354 18.3132 473.354 23.5714C473.354 29.7363 466.058 31.3681 461.368 31.3681C460.673 31.3681 459.805 31.3681 459.11 31.1868C455.983 30.8242 451.467 29.7363 449.556 26.6539L448.34 27.5604C450.772 31.7308 457.025 32.8187 461.194 32.8187C466.927 32.8187 474.743 30.8242 474.743 23.5714C474.917 17.7692 469.88 16.5 464.147 15.9561Z" fill="white"/>
<path d="M380.595 18.1318C381.266 18.1318 381.811 17.5636 381.811 16.8626C381.811 16.1616 381.266 15.5934 380.595 15.5934C379.923 15.5934 379.379 16.1616 379.379 16.8626C379.379 17.5636 379.923 18.1318 380.595 18.1318Z" fill="white"/>
</svg>
